<?xml version="1.0" encoding="utf-8"?>
<svg xmlns="http://www.w3.org/2000/svg" width="65" height="61" viewBox="0 0 65 61" fill="none">
<path d="M10.6237 5.80295C27.4716 -4.83245 50.7142 1.61731 60.3849 19.9315C70.0556 38.2457 59.1486 45.9141 42.3007 56.5495C25.4528 67.1849 12.9262 51.7599 3.25549 33.4457C1.6796 30.4612 -6.22414 16.4383 10.6237 5.80295Z" fill="#F5F9FF"/>
<path d="M22.1875 22.791C22.8367 22.5561 23.5542 22.8922 23.7891 23.5413C24.0231 24.1901 23.6872 24.9064 23.0387 25.1413C19.1816 26.5373 16.4015 30.2989 16.4014 34.7393C16.4018 40.3822 20.8842 44.9175 26.3639 44.9183C30.2965 44.9183 33.7133 42.5854 35.3337 39.1745C35.6298 38.5513 36.3753 38.2864 36.9987 38.582C37.6221 38.8781 37.8886 39.6236 37.5928 40.2471C35.5828 44.4785 31.3173 47.4183 26.3639 47.4183C19.4589 47.4175 13.9018 41.7179 13.9014 34.7393C13.9015 29.2373 17.3491 24.5422 22.1875 22.791Z" fill="#0268D5"/>
<path fill-rule="evenodd" clip-rule="evenodd" d="M26.3639 10.584C29.6314 10.5843 32.2396 13.2774 32.2396 16.5492C32.2394 19.3906 30.2719 21.7942 27.6139 22.3776V24.902H36.6097L36.7367 24.9085C37.3669 24.9726 37.8597 25.5049 37.8597 26.152C37.8597 26.7992 37.3669 27.3314 36.7367 27.3955L36.6097 27.402H27.6139V31.4775H37.5765C38.0189 31.4776 38.4293 31.7117 38.654 32.0928L43.9274 41.0381H48.8493L48.9762 41.0446C49.6066 41.1086 50.0993 41.6408 50.0993 42.2881C50.0987 42.9349 49.6063 43.4678 48.9762 43.5316L48.8493 43.5381H43.2145C42.7723 43.5381 42.3619 43.3035 42.137 42.9229L36.8636 33.9775H26.3639C25.6738 33.9775 25.1143 33.4176 25.1139 32.7275V22.3776C22.4557 21.7942 20.4869 19.3906 20.4867 16.5492C20.4867 13.2773 23.0963 10.5842 26.3639 10.584ZM26.3639 13.084C24.5214 13.0842 22.9867 14.6132 22.9867 16.5492C22.9869 18.4849 24.5215 20.0141 26.3639 20.0143C28.2062 20.014 29.7393 18.4848 29.7396 16.5492C29.7396 14.6133 28.2064 13.0843 26.3639 13.084Z" fill="#0268D5"/>
</svg>