<?xml version="1.0" encoding="utf-8"?>
<svg xmlns="http://www.w3.org/2000/svg" width="65" height="61" viewBox="0 0 65 61" fill="none">
<path d="M10.6237 5.80295C27.4716 -4.83245 50.7142 1.61731 60.3849 19.9315C70.0556 38.2457 59.1486 45.9141 42.3007 56.5495C25.4528 67.1849 12.9262 51.7599 3.25549 33.4457C1.6796 30.4612 -6.22414 16.4383 10.6237 5.80295Z" fill="#F5F9FF"/>
<path d="M45.75 16.6966C45.7501 16.6255 45.7325 16.5553 45.6979 16.4932C45.6634 16.4312 45.6133 16.3792 45.5531 16.3418C45.4928 16.3045 45.4237 16.2833 45.3529 16.2799C45.282 16.2767 45.2113 16.2922 45.1478 16.3239L39.0492 19.3724V19.374C38.7926 19.5022 38.5242 19.6022 38.25 19.68V41.9782L45.5189 38.3437L45.6149 38.2786C45.643 38.2529 45.6679 38.2234 45.6882 38.1908C45.7289 38.125 45.75 38.0484 45.75 37.971V16.6966ZM28.25 38.3193C28.5244 38.3971 28.7924 38.5003 29.0492 38.6286L35.75 41.9782V19.68C35.4758 19.6022 35.2074 19.5022 34.9509 19.374V19.3724L28.25 16.0212V38.3193ZM18.4811 19.6589C18.4119 19.6934 18.3526 19.7461 18.3119 19.8118C18.2713 19.8776 18.25 19.9543 18.25 20.0316V41.3044C18.2498 41.3753 18.2677 41.4457 18.3021 41.5078C18.3366 41.57 18.3865 41.6233 18.4469 41.6608C18.5072 41.6981 18.5764 41.7193 18.6471 41.7227C18.7179 41.7259 18.7888 41.7103 18.8522 41.6787L24.9509 38.6286C25.2077 38.5003 25.4756 38.3971 25.75 38.3193V16.0228L18.4811 19.6589ZM48.25 37.9727C48.2497 38.5141 48.0986 39.0454 47.8138 39.5059C47.529 39.9662 47.1213 40.3381 46.6371 40.5801L39.0492 44.374V44.3757C38.413 44.6935 37.7112 44.859 37 44.859C36.2888 44.859 35.587 44.6935 34.9509 44.3757V44.374L27.931 40.8649C27.6419 40.7205 27.3232 40.6452 27 40.6452C26.7575 40.6452 26.5172 40.6867 26.2904 40.7689L26.069 40.8649L19.9704 43.915C19.5252 44.1375 19.0304 44.2422 18.5332 44.2194C18.0361 44.1966 17.5532 44.047 17.1302 43.7848C16.7073 43.5227 16.3577 43.157 16.1162 42.722C15.8748 42.2871 15.7489 41.7969 15.75 41.2995V20.0299L15.7565 19.8265C15.7896 19.356 15.937 18.8996 16.1862 18.4967C16.471 18.0363 16.8787 17.6646 17.363 17.4225L24.9509 13.627L25.1934 13.5146C25.7634 13.2702 26.378 13.1436 27 13.1436C27.7112 13.1436 28.413 13.3091 29.0492 13.627L36.069 17.1377L36.2904 17.2321C36.5173 17.3143 36.7574 17.3574 37 17.3574C37.3231 17.3574 37.642 17.282 37.931 17.1377L44.0296 14.0876C44.4746 13.8652 44.9699 13.7589 45.4668 13.7816C45.9633 13.8043 46.4456 13.9546 46.8682 14.2161C47.2911 14.478 47.6404 14.8442 47.8822 15.279C48.1235 15.7131 48.2504 16.2015 48.25 16.6982V37.9727Z" fill="#0268D5"/>
</svg>