<?xml version="1.0" encoding="utf-8"?>
<svg xmlns="http://www.w3.org/2000/svg" width="65" height="61" viewBox="0 0 65 61" fill="none">
<path d="M10.6237 5.80295C27.4716 -4.83245 50.7142 1.61731 60.3849 19.9315C70.0556 38.2457 59.1486 45.9141 42.3007 56.5495C25.4528 67.1849 12.9262 51.7599 3.25549 33.4457C1.6796 30.4612 -6.22414 16.4383 10.6237 5.80295Z" fill="#F5F9FF"/>
<path fill-rule="evenodd" clip-rule="evenodd" d="M38.2507 10.667C38.941 10.667 39.5007 11.2266 39.5007 11.917V14.0003H43.2507C45.782 14.0003 47.834 16.0524 47.834 18.5837V41.917C47.834 44.4483 45.782 46.5003 43.2507 46.5003H19.9173C17.386 46.5003 15.334 44.4483 15.334 41.917V18.5837C15.334 16.0524 17.386 14.0003 19.9173 14.0003H23.6673V11.917C23.6673 11.2266 24.227 10.667 24.9173 10.667C25.6077 10.667 26.1673 11.2266 26.1673 11.917V14.0003H37.0007V11.917C37.0007 11.2266 37.5603 10.667 38.2507 10.667ZM17.834 41.917C17.834 43.0676 18.7667 44.0003 19.9173 44.0003H43.2507C44.4012 44.0003 45.334 43.0676 45.334 41.917V26.5003H17.834V41.917ZM19.9173 16.5003C18.7667 16.5003 17.834 17.4331 17.834 18.5837V24.0003H45.334V18.5837C45.334 17.4331 44.4012 16.5003 43.2507 16.5003H39.5007V18.5837C39.5007 19.274 38.941 19.8337 38.2507 19.8337C37.5603 19.8337 37.0007 19.274 37.0007 18.5837V16.5003H26.1673V18.5837C26.1673 19.274 25.6077 19.8337 24.9173 19.8337C24.227 19.8337 23.6673 19.274 23.6673 18.5837V16.5003H19.9173Z" fill="#0268D5"/>
</svg>