<?xml version="1.0" encoding="utf-8"?>
<svg xmlns="http://www.w3.org/2000/svg" width="81" height="80" viewBox="0 0 81 80" fill="none">
<g clip-path="url(#clip0_1008_16352)">
<rect width="81" height="80" fill="white"/>
<path d="M80.08 27.3399C80.08 55.2999 56.78 79.9999 29.84 79.9999C2.90003 79.9999 2.03003 61.3799 2.03003 33.4199C2.03003 5.4599 27.77 -0.000102638 54.71 -0.000102638C59.1 -0.000102638 80.08 -0.620102 80.08 27.3399Z" fill="#F5F9FF"/>
<path d="M55.2326 8C55.2326 7.44772 54.7849 7 54.2326 7H51.6414C51.0891 7 50.6414 7.44771 50.6414 8V61.3294H55.2326V8Z" fill="#67B3E4"/>
<path d="M58 60C58 58.8954 57.1046 58 56 58H50C48.8954 58 48 58.8954 48 60V74H58V60Z" fill="#25303B"/>
<path d="M19.8365 14.7381L18.7087 15.8481L53.4503 50.0436L54.578 48.9336L19.8365 14.7381Z" fill="#67B3E4" fill-opacity="0.41"/>
<path d="M47 8C47 7.44772 46.5523 7 46 7H8C7.44772 7 7 7.44772 7 8V29C7 29.5523 7.44771 30 8 30H46C46.5523 30 47 29.5523 47 29V8Z" fill="#DDDDDD" stroke="#DDDDDD" stroke-miterlimit="10" stroke-linejoin="round"/>
<path d="M46 9C46 8.44772 45.5523 8 45 8H9C8.44772 8 8 8.44772 8 9V28C8 28.5523 8.44772 29 9 29H45C45.5523 29 46 28.5523 46 28V9Z" fill="#FCFCFC" stroke="#25303B" stroke-miterlimit="10" stroke-linejoin="round"/>
<path d="M28.9867 23.3667C27.5166 24.9745 26.0465 25.7783 25.0664 25.7783C24.2497 25.7783 23.923 25.1352 24.2497 23.5275C24.7397 21.7589 25.2298 19.8296 25.5565 18.3826C25.7199 17.7395 25.7199 17.5788 25.5565 17.5788C25.3932 17.5788 24.7397 17.9003 24.2497 18.3826L23.9231 17.7395C25.3932 16.2926 27.0266 15.4887 27.8433 15.4887C28.66 15.4887 28.8233 16.1318 28.3333 18.2219C28.0066 19.6688 27.5166 21.4374 27.19 22.8844C27.0266 23.3667 27.0266 23.6882 27.19 23.6882C27.3533 23.6882 28.0066 23.3667 28.66 22.7236L28.9867 23.3667ZM29.4767 12.2732C29.4767 13.2378 28.8233 14.0417 27.8433 14.0417C27.0266 14.0417 26.5365 13.5594 26.5365 12.5947C26.5365 11.7908 27.1899 10.8262 28.3333 10.8262C28.9867 10.8262 29.4767 11.4693 29.4767 12.2732Z" fill="#64B5F6"/>
</g>
<defs>
<clipPath id="clip0_1008_16352">
<rect width="81" height="80" fill="white"/>
</clipPath>
</defs>
</svg>