<?xml version="1.0" encoding="utf-8"?>
<svg xmlns="http://www.w3.org/2000/svg" width="81" height="80" viewBox="0 0 81 80" fill="none">
<g clip-path="url(#clip0_1002_16219)">
<rect width="81" height="80" fill="white"/>
<g clip-path="url(#clip1_1002_16219)">
<path d="M80.08 27.3399C80.08 55.2999 56.78 79.9999 29.84 79.9999C2.90003 79.9999 2.03003 61.3799 2.03003 33.4199C2.03003 5.4599 27.77 -0.000102638 54.71 -0.000102638C59.1 -0.000102638 80.08 -0.620102 80.08 27.3399Z" fill="#F5F9FF"/>
<path d="M38.737 1.26537L14.9083 7.40907C12.1975 8.10798 10.5716 10.8528 11.2767 13.5398L25.078 66.1346C25.7831 68.8216 28.5522 70.4333 31.263 69.7344L55.0917 63.5907C57.8025 62.8918 59.4284 60.147 58.7233 57.46L44.922 4.86513C44.2169 2.17813 41.4478 0.566464 38.737 1.26537Z" fill="#DDDDDD"/>
<path d="M38.2852 2.77476L16.0542 8.50651C13.6672 9.12194 12.2355 11.5389 12.8564 13.905L26.2391 64.9047C26.86 67.2707 29.2984 68.6899 31.6854 68.0745L53.9163 62.3427C56.3033 61.7273 57.7351 59.3103 57.1142 56.9442L43.7314 5.94457C43.1106 3.5785 40.6722 2.15933 38.2852 2.77476Z" fill="white"/>
<path d="M54.0092 62.7226L31.7867 68.4561C29.1975 69.1272 26.537 67.5731 25.86 65.0066L12.4743 14.0053C11.7973 11.4387 13.3651 8.80155 15.9543 8.13048L38.1767 2.39695C40.766 1.72588 43.4265 3.27994 44.1035 5.84648L57.4892 56.836C58.1662 59.4026 56.5984 62.0398 54.0092 62.7108V62.7226ZM16.1443 8.88396C13.9708 9.44907 12.6524 11.6624 13.2225 13.8169L26.6082 64.8064C27.1783 66.9609 29.4113 68.2678 31.5848 67.7026L53.8072 61.9691C55.9808 61.404 57.2992 59.1907 56.7291 57.0362L43.3552 6.04663C42.7851 3.89214 40.5522 2.58532 38.3786 3.15043L16.1443 8.88396Z" fill="#25303C"/>
<path d="M51.1843 30.5775L48.592 20.6989L48.9024 20.6188C49.2242 20.5359 49.5689 20.7268 49.6556 21.0572L51.9399 29.7623C52.0236 30.0813 51.831 30.4229 51.4976 30.5088L51.1873 30.5889L51.1843 30.5775Z" fill="#DDDDDD"/>
<path d="M18.0484 37.769L20.6406 47.6476L20.3303 47.7276C20.0084 47.8106 19.6638 47.6196 19.5771 47.2892L17.2928 38.5842C17.2091 38.2652 17.4017 37.9235 17.735 37.8376L18.0454 37.7576L18.0484 37.769Z" fill="#DDDDDD"/>
<path d="M15.106 26.5971L17.6983 36.4757L17.3879 36.5557C17.066 36.6387 16.7214 36.4478 16.6347 36.1174L14.3504 27.4123C14.2667 27.0933 14.4593 26.7517 14.7927 26.6657L15.103 26.5857L15.106 26.5971Z" fill="#DDDDDD"/>
<path d="M12.6663 17.345L14.2599 23.418L13.961 23.495C13.6392 23.578 13.3205 23.3926 13.2368 23.0735L11.9451 18.1513C11.8614 17.8323 12.0485 17.5164 12.3704 17.4334L12.6692 17.3564L12.6663 17.345Z" fill="#DDDDDD"/>
<path d="M55.2324 51.8796L25.2303 59.5675L14.3032 17.4902L44.3765 9.83765L55.2324 51.8796Z" fill="white"/>
<path d="M46.9522 20.189L17.0198 27.8125L26.4073 64.0277L56.3398 56.4042L46.9522 20.189Z" fill="white"/>
<path d="M31.5399 6.05086L23.5517 8.11337C23.2407 8.19368 23.0542 8.50873 23.1352 8.81705L23.2909 9.40948C23.3719 9.7178 23.6898 9.90263 24.0008 9.82232L31.989 7.75981C32.3 7.67949 32.4865 7.36445 32.4055 7.05613L32.2498 6.4637C32.1688 6.15538 31.8509 5.97055 31.5399 6.05086Z" fill="#25303C"/>
<path d="M36.5038 26.4303L28.6708 28.476C26.863 28.9481 25.7836 30.7835 26.2599 32.5754L28.3236 40.3398C28.7999 42.1317 30.6515 43.2017 32.4593 42.7296L40.2923 40.6839C42.1001 40.2118 43.1796 38.3764 42.7033 36.5845L40.6395 28.8201C40.1632 27.0282 38.3116 25.9582 36.5038 26.4303Z" fill="#45B1F7"/>
<path d="M34.4473 30.8644C34.3048 31.6885 33.6516 32.2536 32.9983 32.1359C32.3451 32.0182 31.9412 31.2647 32.0838 30.4406C32.2263 29.6165 32.8795 29.0513 33.5328 29.1691C34.186 29.2868 34.5899 30.0403 34.4473 30.8644Z" fill="white"/>
<path d="M36.6802 35.4796C34.9937 34.1021 33.7109 35.3618 33.0577 36.9983C32.5351 38.2816 32.1075 39.4 31.573 40.7657C31.4423 41.0836 31.6205 41.1307 31.858 40.907C32.0956 40.6833 32.2856 40.3654 32.4519 39.9534C32.6776 39.3883 33.2358 37.9873 33.5803 37.1043C33.8891 36.3155 34.6373 36.186 35.3262 36.7393C36.122 37.3868 37.1078 38.1992 37.9749 38.8938C38.5806 39.3765 39.8871 38.9409 40.4572 38.7407C40.5641 38.7054 40.576 38.623 40.5047 38.5641C40.0059 38.1639 38.2718 36.7628 36.704 35.4796H36.6802Z" fill="white"/>
<path d="M37.2384 30.8763C35.73 32.1949 35.1717 32.2537 33.7583 32.8542C32.3449 33.4546 31.3473 34.0668 30.4683 35.6797C30.2545 36.08 30.1952 36.3979 30.599 36.0329C32.1074 34.7143 32.6656 34.6554 34.079 34.055C35.4924 33.4546 36.4901 32.8424 37.369 31.2295C37.5828 30.8292 37.6422 30.5113 37.2384 30.8763Z" fill="white"/>
</g>
</g>
<defs>
<clipPath id="clip0_1002_16219">
<rect width="81" height="80" fill="white"/>
</clipPath>
<clipPath id="clip1_1002_16219">
<rect width="81" height="80" fill="white"/>
</clipPath>
</defs>
</svg>