<?xml version="1.0" encoding="utf-8"?>
<svg xmlns="http://www.w3.org/2000/svg" width="65" height="61" viewBox="0 0 65 61" fill="none">
<path d="M10.6237 5.80295C27.4716 -4.83245 50.7142 1.61731 60.3849 19.9315C70.0556 38.2457 59.1486 45.9141 42.3007 56.5495C25.4528 67.1849 12.9262 51.7599 3.25549 33.4457C1.6796 30.4612 -6.22414 16.4383 10.6237 5.80295Z" fill="#F5F9FF"/>
<path d="M32.0007 17.7497C32.691 17.7497 33.2507 18.3093 33.2507 18.9997V28.2266L39.2256 31.2148C39.8428 31.5235 40.0937 32.2739 39.7855 32.8913C39.4961 33.47 38.8185 33.726 38.2262 33.5016L38.109 33.4512L31.4424 30.1178C31.0189 29.9061 30.7507 29.4731 30.7507 28.9997V18.9997C30.7507 18.3093 31.3103 17.7497 32.0007 17.7497Z" fill="#0268D5"/>
<path fill-rule="evenodd" clip-rule="evenodd" d="M32.0007 11.083C41.8958 11.083 49.9173 19.1046 49.9173 28.9997C49.9173 38.8948 41.8958 46.9163 32.0007 46.9163C22.1055 46.9163 14.084 38.8948 14.084 28.9997C14.084 19.1046 22.1055 11.083 32.0007 11.083ZM32.0007 13.583C23.4863 13.583 16.584 20.4853 16.584 28.9997C16.584 37.5141 23.4863 44.4163 32.0007 44.4163C40.515 44.4163 47.4173 37.5141 47.4173 28.9997C47.4173 20.4853 40.515 13.583 32.0007 13.583Z" fill="#0268D5"/>
</svg>