<?xml version="1.0" encoding="utf-8"?>
<svg xmlns="http://www.w3.org/2000/svg" width="81" height="80" viewBox="0 0 81 80" fill="none">
<g clip-path="url(#clip0_1002_16086)">
<rect width="81" height="80" fill="white"/>
<g clip-path="url(#clip1_1002_16086)">
<path d="M80.08 27.3399C80.08 55.2999 56.78 79.9999 29.84 79.9999C2.90003 79.9999 2.03003 61.3799 2.03003 33.4199C2.03003 5.4599 27.77 -0.000102638 54.71 -0.000102638C59.1 -0.000102638 80.08 -0.620102 80.08 27.3399Z" fill="#F5F9FF"/>
</g>
<mask id="mask0_1002_16086" style="mask-type:luminance" maskUnits="userSpaceOnUse" x="10" y="2" width="51" height="67">
<path d="M10.1307 10.2554L45.44 2.05539L60.0711 60.4909L24.7619 68.6909L10.1307 10.2554Z" fill="white"/>
</mask>
<g mask="url(#mask0_1002_16086)">
<path d="M41.1371 13.9865C41.2983 14.0182 41.4648 14.0362 41.6367 14.0405C41.8277 14.0366 42.024 14.0189 42.2078 13.9727L42.2269 13.9644C42.2115 13.9031 42.1931 13.8091 42.1623 13.6865C42.1048 13.4509 42.0402 13.1731 41.959 12.8571C41.9211 12.6923 41.8624 12.4799 41.7966 12.2253C41.7475 12.0087 41.6846 11.7868 41.6176 11.5553C41.4433 11.5974 41.2827 11.6448 41.1208 11.7155C40.9685 11.782 40.8244 11.8675 40.6887 11.972C40.5191 12.1027 40.3839 12.2864 40.3171 12.4969C40.2502 12.7074 40.2476 12.9352 40.3063 13.1477C40.3555 13.3642 40.4618 13.5558 40.6169 13.7035C40.772 13.8512 40.9486 13.9441 41.1508 13.9919L41.1371 13.9865Z" fill="#64B5F6"/>
<path d="M33.3733 14.87C33.1746 14.9341 32.983 15.0404 32.8009 15.1425C32.7044 15.2072 32.6122 15.2815 32.5419 15.3802C32.5121 15.4159 32.5002 15.4664 32.4841 15.5074C32.4721 15.558 32.4792 15.6002 32.4905 15.652C32.5017 15.7037 32.5225 15.7513 32.5528 15.7948C32.5736 15.8424 32.6229 15.8775 32.6586 15.9073C32.7626 15.9639 32.8815 16.0027 32.9975 16.0087C33.1177 16.0243 33.239 16.0167 33.3562 15.9996C33.4966 15.9836 33.6328 15.9582 33.7691 15.9327C33.8072 15.9161 33.8631 15.9144 33.9339 15.8948C33.9624 15.8824 33.9952 15.8794 34.0374 15.8723C34.0249 15.8437 34.0178 15.8015 34.0107 15.7593C33.9799 15.6367 33.942 15.4719 33.8875 15.269L33.8175 15.0049C33.7938 14.9245 33.7796 14.8401 33.7476 14.7407C33.6536 14.759 33.5203 14.8172 33.3638 14.8742L33.3733 14.87Z" fill="#64B5F6"/>
<path d="M45.0539 10.9625C44.9593 10.9018 44.8541 10.8683 44.7339 10.8528C44.6138 10.8372 44.4925 10.8448 44.3794 10.8715C44.2527 10.8928 44.1384 10.9426 44.0367 11.021C43.9444 11.0953 43.8604 11.1886 43.8038 11.2927C43.7216 11.4419 43.6667 11.6018 43.6529 11.7779C43.6337 11.9676 43.6472 12.1544 43.6934 12.3383C43.7384 12.5453 43.8215 12.7357 43.9385 12.9C44.0419 13.0589 44.1887 13.1875 44.3516 13.2751C44.4515 13.3222 44.5567 13.3556 44.6632 13.3658C44.7833 13.3814 44.891 13.3684 45.0041 13.3418C45.1266 13.3109 45.2409 13.2611 45.3468 13.1922C45.4432 13.1274 45.5272 13.0341 45.5838 12.9301C45.666 12.7809 45.7304 12.6168 45.7443 12.4407C45.7635 12.251 45.75 12.0642 45.7037 11.8803C45.6534 11.687 45.5703 11.4965 45.4628 11.3281C45.3594 11.1692 45.218 11.0269 45.0551 10.9393L45.0539 10.9625Z" fill="#64B5F6"/>
<path d="M27.3055 52.3138C27.8285 52.1876 28.2679 51.7918 28.1191 51.1654C27.9621 50.5198 27.3638 50.3955 26.8367 50.5122C26.281 50.6414 25.8334 51.0181 25.9987 51.6827C26.164 52.3472 26.7594 52.4388 27.3055 52.3138Z" fill="#323E48"/>
<path d="M12.2118 9.77809C11.6561 9.90724 11.1865 10.2595 10.9047 10.7565C10.6134 11.2577 10.5355 11.8584 10.6729 12.4331L24.2101 66.5177C24.3571 67.0882 24.7123 67.5906 25.2027 67.9093C25.6932 68.228 26.2831 68.3332 26.8293 68.2082L39.0026 65.3781L24.3852 6.94796L12.2118 9.77809ZM25.8492 23.9904C25.8759 24.1035 25.893 24.2207 25.8965 24.3325C25.8958 24.4348 25.8856 24.5413 25.848 24.637C25.8104 24.7327 25.7551 24.8136 25.6818 24.8796C25.5991 24.9497 25.489 25.009 25.3855 25.0315L25.3013 24.6829C25.3626 24.6675 25.4251 24.6289 25.4739 24.5849C25.5132 24.5451 25.5442 24.4862 25.5657 24.4315C25.583 24.3673 25.5908 24.3072 25.5849 24.2418C25.579 24.1764 25.5689 24.1014 25.5494 24.0306C25.5245 23.9735 25.5132 23.9217 25.4978 23.8604C25.4729 23.8033 25.4521 23.7557 25.4176 23.7027C25.3873 23.6593 25.3475 23.62 25.2928 23.5985C25.2381 23.5771 25.178 23.5693 25.1263 23.5805C25.0882 23.5972 25.0501 23.6138 25.0216 23.6262C24.9876 23.6524 24.9674 23.6839 24.9513 23.7249C24.9232 23.8165 24.9089 23.9134 24.904 24.0062C24.9075 24.118 24.9014 24.234 24.909 24.3554C24.9167 24.4767 24.9106 24.5927 24.895 24.7129C24.8848 24.8193 24.8473 24.9151 24.7865 25.0096C24.7162 25.1083 24.6156 25.1635 24.508 25.1765C24.4181 25.2043 24.3212 25.19 24.2296 25.1619C24.1475 25.1297 24.0709 25.0839 24.0091 25.0202C23.9473 24.9564 23.8908 24.8791 23.8397 24.788C23.8024 24.7023 23.7608 24.6071 23.7329 24.5173C23.7063 24.4042 23.6891 24.287 23.6761 24.1794C23.6673 24.0812 23.6817 23.9843 23.7097 23.8927C23.7378 23.8011 23.7932 23.7203 23.8569 23.6585C23.9396 23.5883 24.0402 23.5331 24.1437 23.5106L24.2278 23.8593C24.1707 23.8842 24.1231 23.905 24.0743 23.9489C24.035 23.9888 24.0094 24.0339 23.9974 24.0845C23.9855 24.135 23.9777 24.1951 23.9794 24.251C23.9812 24.3069 23.9871 24.3724 24.0078 24.42C24.0286 24.4676 24.0399 24.5193 24.0648 24.5765C24.0856 24.6241 24.1063 24.6717 24.1462 24.711C24.1723 24.7449 24.208 24.7747 24.2531 24.8003C24.2942 24.8164 24.3447 24.8283 24.3923 24.8076C24.4209 24.7951 24.4399 24.7868 24.4685 24.7743C24.4971 24.7619 24.5078 24.7345 24.5227 24.7167C24.5537 24.6578 24.571 24.5936 24.5788 24.5335C24.5919 24.4598 24.5914 24.3807 24.5909 24.3016C24.5862 24.2129 24.5857 24.1338 24.581 24.0452C24.5763 23.9565 24.5812 23.8638 24.586 23.771C24.595 23.6877 24.604 23.6044 24.6362 23.5224C24.663 23.454 24.6994 23.3815 24.7577 23.3333C24.8214 23.2715 24.8976 23.2383 24.9821 23.2241C25.0856 23.2016 25.1974 23.1981 25.3027 23.2315C25.3984 23.2691 25.4793 23.3245 25.5547 23.3936C25.6248 23.4763 25.6854 23.5632 25.727 23.6584C25.7727 23.7631 25.8142 23.8584 25.8367 23.9619L25.8492 23.9904ZM14.5973 16.569C14.4586 16.0175 14.5407 15.4263 14.8213 14.9525C15.0977 14.4692 15.5525 14.1347 16.085 14.0044L20.8928 12.8924C21.4294 12.7715 21.9962 12.8755 22.4688 13.1793C22.9414 13.4831 23.2883 13.9665 23.4311 14.5275L24.6905 19.5431C24.8291 20.0946 24.7471 20.6858 24.4665 21.1596C24.1901 21.6429 23.7353 21.9774 23.2028 22.1077L18.395 23.2197C17.8584 23.3406 17.2916 23.2366 16.819 22.9328C16.3464 22.629 15.9994 22.1456 15.8608 21.5941L14.6014 16.5786L14.5973 16.569ZM22.3741 35.039L24.3285 34.5828L24.6366 35.8085L21.0574 36.645L20.7563 35.4616L21.2507 35.3479L21.2424 35.3289C20.8214 35.1952 20.4733 34.7351 20.3613 34.2966C20.0448 33.0519 20.8885 32.7517 21.4115 32.6255L23.7051 32.0894L24.0132 33.315L22.2849 33.7179C21.7905 33.8316 21.2848 33.8936 21.4502 34.5582C21.561 35.0198 21.9832 35.1303 22.3741 35.039ZM24.0623 45.7385L23.5355 43.6222L24.5243 43.3948L25.0511 45.511L26.9443 45.0703L27.2791 46.4089L22.3582 47.5476L21.4112 43.7672L22.4381 43.5231L23.0503 45.9648L24.0582 45.729L24.0623 45.7385ZM24.2012 41.5636L25.9718 41.1536L26.28 42.3792L22.7007 43.2158L22.4092 42.0283L23.0357 41.8795C22.5331 41.7928 22.1843 41.435 22.0539 40.9025C22.0356 40.8085 22.0131 40.705 22.0138 40.6027L23.0734 40.3556C23.0649 40.518 23.0796 40.6816 23.1271 40.8423C23.277 41.4455 23.7586 41.6661 24.2149 41.569L24.2012 41.5636ZM24.3541 51.1083L24.235 50.6275L28.1153 49.7276L28.2344 50.2084L27.853 50.2954C28.2015 50.3927 28.4302 50.735 28.5393 51.1407C28.7621 52.0409 28.1905 52.653 27.3992 52.8397C26.6079 53.0263 25.823 52.7341 25.6044 51.8435C25.5315 51.5466 25.5325 51.0814 25.8034 50.7932L24.3583 51.1178L24.3541 51.1083ZM26.63 49.7524C25.7869 49.9503 25.0188 49.5148 24.8281 48.714C24.5703 47.6817 25.422 47.14 26.1032 47.0128L26.6537 49.2094C27.1427 49.1093 27.5071 48.7236 27.3501 48.0781C27.2547 47.6777 26.9968 47.4502 26.6107 47.4486L26.4958 46.9774C27.1477 46.965 27.5976 47.3467 27.763 48.0112C28.0024 48.9495 27.4879 49.5367 26.6341 49.7619L26.63 49.7524ZM30.6902 60.0175L27.1205 60.8499L26.8165 59.6338L30.3957 58.7973L30.6997 60.0134L30.6902 60.0175ZM30.2363 58.1981L26.2757 59.1218L26.4677 59.8994L26.0335 60.4629L26.6875 60.7668L26.9187 61.686L25.6968 61.1198L25.4236 60.0263L26.096 59.1775L25.3237 59.3558L25.0156 58.1302L29.9364 56.9915L30.2404 58.2076L30.2363 58.1981ZM28.0573 57.0748C26.965 57.3248 25.9467 56.6018 25.6694 55.4987C25.3345 54.16 26.1348 53.2668 27.3609 53.0377L28.046 55.7763C28.5321 55.6435 28.7793 55.275 28.6531 54.752C28.5802 54.4551 28.3752 54.1932 28.0844 54.1501L27.8 53.0048C28.6868 53.0372 29.2494 53.755 29.4527 54.5844C29.7567 55.8005 29.2585 56.7887 28.0573 57.0748ZM24.6802 40.1418C23.5171 40.4114 23.2709 39.068 22.8945 38.2575C22.8073 38.0576 22.7056 37.9546 22.4796 38.0079C22.2112 38.0683 22.1877 38.43 22.2535 38.6846C22.3335 39.0237 22.5379 39.2065 22.8502 39.1949L23.1347 40.3402C22.6605 40.4225 22.2966 40.2639 22.0274 39.9847C21.7541 39.6959 21.5849 39.2824 21.4771 38.8534C21.2584 37.9628 21.2307 37.0681 22.2386 36.8323L23.8021 36.4674C24.099 36.3945 24.4381 36.3145 24.6768 36.1083L24.9891 37.3434C24.8927 37.4082 24.7785 37.4581 24.6696 37.4942C25.0709 37.7385 25.3084 38.1789 25.4204 38.6174C25.597 39.3337 25.3965 39.9652 24.657 40.1406L24.6802 40.1418ZM21.9026 32.2185C20.7722 32.4852 19.7645 31.9162 19.4646 30.7096C19.2294 29.7808 19.492 28.8502 20.4202 28.5358L20.7212 29.7192C20.4148 29.7962 20.2765 30.1286 20.3536 30.435C20.5272 31.1186 21.1096 31.1025 21.5998 30.9792C22.0615 30.8684 22.4782 30.5506 22.3561 30.0371C22.2524 29.6177 21.9635 29.4491 21.5709 29.4844L21.2698 28.301C22.2526 28.1895 23.0002 28.838 23.2509 29.828C23.5324 30.9406 23.0003 31.9549 21.908 32.2049L21.9026 32.2185ZM20.8498 28.3256C19.7575 28.5756 18.7392 27.8526 18.4619 26.7495C18.1271 25.4108 18.9273 24.5176 20.1535 24.2885L20.8386 27.0271C21.3247 26.8943 21.5718 26.5258 21.4456 26.0028C21.3727 25.7059 21.1678 25.444 20.8769 25.4009L20.5925 24.2556C21.4794 24.2879 22.042 25.0058 22.2452 25.8352C22.5492 27.0513 22.0552 28.049 20.8498 28.3256ZM23.1669 26.1811L23.9445 26.6124L24.0145 26.8766L23.2831 26.6291L23.171 26.1906L23.1669 26.1811ZM26.2466 27.784C26.2466 27.784 26.3037 27.7591 26.3323 27.7466C26.3513 27.7383 26.3662 27.7205 26.3769 27.6931C26.3877 27.6658 26.3847 27.6331 26.3859 27.6099C26.3788 27.5676 26.3676 27.5159 26.3605 27.4736L26.3226 27.3088L26.6099 27.2401L26.6799 27.5042C26.7036 27.5846 26.7136 27.6595 26.7142 27.7386C26.7159 27.7946 26.7081 27.8546 26.6866 27.9093C26.661 27.9545 26.6259 28.0039 26.5783 28.0246C26.5021 28.0579 26.4355 28.0869 26.3551 28.1107L25.0694 28.411L25.1577 28.7692L24.8704 28.8379L24.7821 28.4798L24.1746 28.6202L24.0905 28.2715L24.6979 28.1311L24.5942 27.7117L24.8816 27.643L24.9853 28.0624L26.2383 27.765L26.2466 27.784ZM24.4804 30.5156L24.3962 30.1669L27.1842 29.517L27.2683 29.8657L24.4804 30.5156ZM27.4041 30.3845L27.4882 30.7331L25.4725 31.2047L25.3884 30.8561L27.4041 30.3845ZM25.0165 30.939L25.1007 31.2876L24.7003 31.383L24.6161 31.0344L25.0165 30.939ZM24.2605 29.6481L24.1764 29.2995L24.5768 29.2041L24.6609 29.5527L24.2605 29.6481ZM25.0328 29.4698L24.9486 29.1212L26.9643 28.6496L27.0485 28.9982L25.0328 29.4698ZM28.8654 36.2526L27.5375 36.5601C27.4762 36.5755 27.4149 36.5909 27.3673 36.6116C27.3197 36.6324 27.2763 36.6627 27.237 36.7025C27.1977 36.7424 27.1762 36.7971 27.1738 36.8435C27.1606 36.9172 27.1707 36.9922 27.1903 37.063C27.2003 37.1379 27.2335 37.2141 27.2817 37.2724C27.3203 37.3349 27.3779 37.3891 27.4409 37.4296C27.5039 37.4701 27.5723 37.4969 27.6419 37.5006C27.7157 37.5137 27.7811 37.5078 27.8519 37.4883L29.109 37.2004L29.1932 37.549L27.8652 37.8565C27.804 37.8719 27.7427 37.8873 27.6897 37.9218C27.6421 37.9425 27.5986 37.9728 27.5635 38.0222C27.5337 38.0578 27.5123 38.1125 27.5003 38.1631C27.4967 38.2327 27.5026 38.2981 27.518 38.3594C27.5363 38.4534 27.5832 38.5349 27.6355 38.6028C27.6837 38.6611 27.7508 38.7111 27.8234 38.7475C27.8822 38.7785 27.9464 38.7958 28.0202 38.8089C28.0707 38.8209 28.1267 38.8192 28.1784 38.8079L29.4355 38.52L29.5197 38.8686L27.4945 39.3444L27.4091 39.0189L27.706 38.9461C27.5199 38.8573 27.3594 38.7233 27.271 38.5465C27.173 38.3739 27.1375 38.1627 27.1757 37.9647C27.193 37.9005 27.2145 37.8458 27.2496 37.7964C27.2848 37.7471 27.3336 37.7031 27.3812 37.6823C27.2581 37.6341 27.1458 37.5584 27.0578 37.4608C26.9657 37.3536 26.9022 37.234 26.8767 37.0978C26.8542 36.9942 26.8359 36.9002 26.8366 36.7979C26.8361 36.7188 26.8546 36.6314 26.8868 36.5493C26.9231 36.4768 26.9732 36.4096 27.0315 36.3615C27.1089 36.3051 27.1946 36.2677 27.2886 36.2493L28.7718 35.9081L28.8559 36.2567L28.8654 36.2526ZM28.505 34.9591C28.484 35.0929 28.4399 35.2255 28.3643 35.3379C28.2886 35.4502 28.191 35.5382 28.0755 35.6112C27.9505 35.6884 27.8172 35.7466 27.681 35.7721C27.5394 35.8112 27.3948 35.8176 27.2515 35.8008C27.1218 35.7894 26.9892 35.7452 26.8715 35.6833C26.7538 35.6213 26.6427 35.5224 26.5601 35.4111C26.3783 35.1504 26.3066 34.8304 26.3361 34.5342C26.357 34.4003 26.4053 34.2773 26.4809 34.1649C26.5566 34.0526 26.6542 33.9646 26.7697 33.8916C26.8947 33.8143 27.028 33.7562 27.1642 33.7307C27.3058 33.6916 27.4504 33.6852 27.5937 33.702C27.7234 33.7134 27.856 33.7575 27.9737 33.8195C28.0914 33.8815 28.1889 33.975 28.2714 34.0863C28.4532 34.347 28.5249 34.6671 28.4955 34.9633L28.505 34.9591ZM27.8978 32.2432C27.9037 32.3086 27.9001 32.3782 27.8964 32.4478C27.8928 32.5174 27.8755 32.5816 27.8487 32.65C27.8218 32.7184 27.7813 32.7814 27.7325 32.8253L28.005 32.7744L28.0891 33.1231L25.3012 33.773L25.217 33.4244L26.2576 33.1856C26.1292 33.151 26.0168 33.0754 25.9438 32.9599C25.8612 32.8486 25.803 32.7153 25.7734 32.5695C25.7343 32.4279 25.7237 32.2738 25.75 32.1264C25.771 31.9925 25.8329 31.8748 25.9127 31.772C25.9925 31.6692 26.0902 31.5812 26.2056 31.5082C26.3211 31.4351 26.4586 31.3865 26.5906 31.3515C26.7227 31.3165 26.8673 31.3101 27.016 31.3132C27.1456 31.3246 27.2741 31.3593 27.4013 31.4171C27.519 31.4791 27.6219 31.5589 27.7044 31.6702C27.7912 31.791 27.863 31.9297 27.8926 32.0754C27.908 32.1367 27.9193 32.1885 27.921 32.2444L27.8978 32.2432ZM26.3811 26.4559C26.3601 26.5897 26.3118 26.7128 26.2457 26.821C26.1701 26.9333 26.0724 27.0213 25.9528 27.0848C25.8278 27.162 25.685 27.2243 25.5434 27.2635C25.4018 27.3026 25.2572 27.309 25.1002 27.2869C24.9664 27.2659 24.8338 27.2218 24.7161 27.1598C24.5984 27.0978 24.5009 27.0044 24.4183 26.893C24.3358 26.7817 24.2776 26.6484 24.2426 26.5164C24.1952 26.3557 24.1995 26.1838 24.2312 26.0226C24.2712 25.8805 24.3427 25.7586 24.4361 25.6612C24.5296 25.5637 24.6504 25.477 24.7742 25.423C24.898 25.369 25.0218 25.3149 25.1526 25.3032L25.5449 26.8774C25.6294 26.8632 25.7151 26.8258 25.7871 26.7831C25.8633 26.7498 25.9133 26.6827 25.9633 26.6155C26.0134 26.5483 26.0456 26.4663 26.0599 26.3693C26.0701 26.2629 26.0708 26.1606 26.0388 26.0612C26.0175 25.9345 25.9445 25.819 25.847 25.7255C25.7537 25.6416 25.6252 25.607 25.4997 25.6051L25.4156 25.2564C25.6256 25.2441 25.8361 25.3109 26.0061 25.4408C26.1707 25.5843 26.2812 25.7854 26.3262 25.9925C26.3695 26.1436 26.38 26.2977 26.3579 26.4547L26.3811 26.4559Z" fill="#25303B"/>
<path d="M26.4604 55.3122C26.5682 55.7412 26.938 55.9652 27.3907 55.9376L27.0096 54.4151C26.6175 54.5296 26.3608 54.9023 26.4604 55.3122Z" fill="#323E48"/>
<path d="M24.6046 25.9958C24.5641 26.0588 24.5414 26.1367 24.5283 26.2105C24.5193 26.2937 24.5239 26.3824 24.5476 26.4627C24.5714 26.543 24.6046 26.6192 24.6515 26.7007C24.6996 26.759 24.7573 26.8132 24.8203 26.8537C24.8833 26.8942 24.9612 26.9169 25.035 26.9301C25.1087 26.9432 25.1878 26.9427 25.2723 26.9285L24.9683 25.7124C24.8921 25.7456 24.8255 25.7747 24.7535 25.8175C24.6951 25.8656 24.6409 25.9233 24.6004 25.9863L24.6046 25.9958Z" fill="#323E48"/>
<path d="M23.3635 37.8262C23.5091 37.978 23.6094 38.2856 23.7406 38.5344C23.8718 38.7831 24.0423 38.9921 24.3202 38.9275C24.598 38.8629 24.6631 38.5965 24.5985 38.3187C24.4569 37.7344 24.0864 37.6127 23.3594 37.8167L23.3635 37.8262Z" fill="#323E48"/>
<path d="M19.2668 26.5683C19.3746 26.9973 19.7444 27.2213 20.1971 27.1937L19.816 25.6712C19.4239 25.7857 19.1672 26.1584 19.2668 26.5683Z" fill="#323E48"/>
<path d="M27.8774 34.1448C27.7912 34.1031 27.6955 34.0656 27.6027 34.0607C27.3666 34.0391 27.1405 34.0924 26.953 34.2082C26.8715 34.2551 26.8024 34.3306 26.7429 34.4019C26.697 34.4786 26.6648 34.5607 26.6463 34.6481C26.6278 34.7355 26.6324 34.8242 26.6603 34.914C26.6882 35.0038 26.7214 35.08 26.7683 35.1616C26.8206 35.2294 26.8919 35.289 26.9686 35.3348C27.0548 35.3765 27.1506 35.4141 27.2434 35.419C27.4753 35.4311 27.7056 35.3873 27.893 35.2714C27.9746 35.2245 28.0478 35.1586 28.0937 35.0819C28.1395 35.0052 28.1717 34.9231 28.1903 34.8357C28.2088 34.7483 28.2041 34.6597 28.1762 34.5698C28.1484 34.48 28.1151 34.4038 28.0682 34.3223C28.0159 34.2544 27.9446 34.1949 27.8679 34.149L27.8774 34.1448Z" fill="#323E48"/>
<path d="M25.2407 48.647C25.3681 49.1468 25.8033 49.3649 26.2394 49.2993L25.8246 47.6215C25.3902 47.743 25.1216 48.1663 25.2407 48.647Z" fill="#323E48"/>
<path d="M27.2219 31.7335C27.1303 31.7055 27.0429 31.6869 26.9406 31.6862C26.8383 31.6856 26.7401 31.6944 26.6408 31.7264C26.5468 31.7448 26.4611 31.7822 26.3796 31.8291C26.2939 31.8665 26.2302 31.9283 26.1706 31.9996C26.1111 32.0709 26.0789 32.153 26.0508 32.2445C26.0269 32.3456 26.0399 32.4533 26.0583 32.5473C26.0808 32.6508 26.136 32.7514 26.202 32.8246C26.2679 32.8979 26.3446 32.9437 26.4308 32.9855C26.517 33.0272 26.614 33.0415 26.7026 33.0369C26.8049 33.0376 26.8935 33.0329 26.9929 33.0009C27.0869 32.9825 27.1821 32.9409 27.2678 32.9036C27.3535 32.8662 27.4267 32.8002 27.4863 32.7289C27.5458 32.6576 27.5875 32.5713 27.6061 32.4839C27.63 32.3828 27.6265 32.271 27.5903 32.1621C27.5678 32.0586 27.5221 31.9539 27.4425 31.8753C27.3765 31.802 27.2998 31.7562 27.2178 31.724L27.2219 31.7335Z" fill="#323E48"/>
<path d="M27.0545 36.3626C26.9962 36.4107 26.942 36.4684 26.9098 36.5504C26.8735 36.6229 26.8645 36.7062 26.8596 36.799C26.8589 36.9013 26.8773 36.9953 26.8998 37.0988C26.9348 37.2309 26.9983 37.3505 27.0809 37.4618C27.1688 37.5595 27.2812 37.6351 27.4043 37.6834C27.3471 37.7083 27.3078 37.7482 27.2727 37.7975C27.2376 37.8468 27.2066 37.9057 27.1988 37.9658C27.1605 38.1638 27.1919 38.3655 27.294 38.5476C27.392 38.7202 27.5471 38.8678 27.7249 38.9376L27.4322 39.02L27.5175 39.3455L29.5332 38.8739L29.4491 38.5252L28.1919 38.8131C28.1919 38.8131 28.0938 38.822 28.0337 38.8142C27.9641 38.8105 27.8957 38.7837 27.8369 38.7527C27.7644 38.7164 27.7109 38.6717 27.6491 38.608C27.5831 38.5348 27.5457 38.4491 27.5315 38.3646C27.5024 38.298 27.5061 38.2284 27.5138 38.1683C27.5258 38.1178 27.5473 38.063 27.577 38.0274C27.6163 37.9876 27.6598 37.9573 27.7032 37.927C27.7604 37.9021 27.8175 37.8771 27.8788 37.8617L29.2067 37.5542L29.1226 37.2056L27.8654 37.4935C27.7988 37.5226 27.7292 37.519 27.6554 37.5058C27.5817 37.4926 27.5175 37.4753 27.4545 37.4348C27.3914 37.3943 27.3433 37.336 27.2952 37.2776C27.2566 37.2152 27.2329 37.1348 27.2038 37.0682C27.1747 37.0015 27.1742 36.9224 27.1873 36.8487C27.1993 36.7981 27.2207 36.7434 27.2505 36.7078C27.2898 36.6679 27.3333 36.6377 27.3809 36.6169C27.438 36.5919 27.4951 36.567 27.551 36.5653L28.879 36.2578L28.7948 35.9092L27.3211 36.2462C27.2271 36.2646 27.1414 36.302 27.0641 36.3584L27.0545 36.3626Z" fill="white"/>
<path d="M27.9831 33.8154C27.8654 33.7534 27.7328 33.7093 27.6031 33.6978C27.4598 33.681 27.3098 33.7011 27.1736 33.7266C27.0278 33.7562 26.8945 33.8143 26.7791 33.8874C26.6636 33.9605 26.566 34.0484 26.4903 34.1608C26.4147 34.2731 26.3664 34.3962 26.3454 34.53C26.3107 34.8399 26.3919 35.1558 26.5695 35.407C26.6521 35.5183 26.759 35.6076 26.8809 35.6791C26.9986 35.7411 27.1312 35.7852 27.2609 35.7966C27.4042 35.8134 27.5541 35.7934 27.6904 35.7679C27.8361 35.7383 27.9694 35.6801 28.0849 35.6071C28.2004 35.534 28.298 35.4461 28.3736 35.3337C28.4493 35.2214 28.4976 35.0983 28.5144 34.9549C28.5492 34.6451 28.468 34.3292 28.2904 34.078C28.2078 33.9667 28.1008 33.8773 27.9926 33.8112L27.9831 33.8154ZM28.204 34.841C28.1855 34.9285 28.1533 35.0105 28.1074 35.0872C28.052 35.1681 27.9883 35.2299 27.9068 35.2768C27.7098 35.3967 27.4837 35.4501 27.2571 35.4243C27.1643 35.4194 27.0686 35.3819 26.9823 35.3402C26.9057 35.2943 26.8343 35.2347 26.7821 35.1669C26.7256 35.0895 26.6924 35.0133 26.674 34.9193C26.6462 34.8295 26.651 34.7367 26.66 34.6534C26.6785 34.566 26.7107 34.4839 26.7566 34.4073C26.812 34.3264 26.8852 34.2605 26.9667 34.2135C27.1637 34.0936 27.3898 34.0403 27.6164 34.066C27.7092 34.0709 27.8049 34.1084 27.8912 34.1502C27.9678 34.196 28.0392 34.2556 28.0915 34.3234C28.1437 34.3913 28.1811 34.477 28.1995 34.571C28.2274 34.6608 28.2225 34.7536 28.2135 34.8369L28.204 34.841Z" fill="white"/>
<path d="M27.3779 31.4158C27.2602 31.3539 27.1317 31.3192 26.9926 31.312C26.8534 31.3047 26.7088 31.3111 26.5672 31.3502C26.431 31.3757 26.2977 31.4338 26.1822 31.5069C26.0626 31.5704 25.965 31.6584 25.8893 31.7707C25.8095 31.8736 25.7612 31.9966 25.7266 32.1251C25.7003 32.2726 25.7109 32.4267 25.75 32.5683C25.7891 32.7099 25.8431 32.8336 25.9203 32.9586C25.9988 33.0604 26.1111 33.1361 26.23 33.1748L25.1936 33.4231L25.2778 33.7717L28.0657 33.1218L27.9816 32.7732L27.7133 32.8336C27.7579 32.7801 27.7984 32.7171 27.8253 32.6487C27.8521 32.5803 27.8694 32.5161 27.873 32.4465C27.8767 32.3769 27.8845 32.3169 27.8744 32.2419C27.8727 32.186 27.8573 32.1247 27.8419 32.0634C27.8123 31.9177 27.7404 31.779 27.6537 31.6582C27.5753 31.5564 27.4683 31.4671 27.3506 31.4051L27.3779 31.4158ZM27.6006 32.4974C27.582 32.5848 27.5403 32.6711 27.4808 32.7424C27.4212 32.8137 27.3438 32.8701 27.2623 32.917C27.1671 32.9586 27.0814 32.996 26.9874 33.0143C26.8934 33.0327 26.7953 33.0415 26.6971 33.0504C26.6043 33.0455 26.5074 33.0311 26.4253 32.999C26.3433 32.9668 26.2624 32.9114 26.1965 32.8381C26.1263 32.7554 26.0753 32.6643 26.0623 32.5567C26.0303 32.4573 26.031 32.355 26.0548 32.2539C26.0734 32.1665 26.1151 32.0803 26.1746 32.0089C26.2342 31.9376 26.302 31.8853 26.3836 31.8384C26.4693 31.801 26.5549 31.7636 26.6448 31.7357C26.7388 31.7174 26.8465 31.7044 26.9446 31.6956C27.0374 31.7004 27.1344 31.7148 27.2259 31.7428C27.308 31.775 27.3888 31.8304 27.4506 31.8941C27.5207 31.9769 27.5718 32.0679 27.5985 32.181C27.6305 32.2803 27.634 32.3922 27.6142 32.5028L27.6006 32.4974Z" fill="white"/>
<path d="M27.3997 30.3751L25.384 30.8467L25.4682 31.1953L27.4839 30.7237L27.3997 30.3751Z" fill="white"/>
<path d="M25.0117 30.9297L24.612 31.0249L24.696 31.373L25.0957 31.2777L25.0117 30.9297Z" fill="white"/>
<path d="M27.1839 29.5168L24.396 30.1667L24.4801 30.5154L27.2681 29.8654L27.1839 29.5168Z" fill="white"/>
<path d="M24.5854 29.2002L24.1857 29.2954L24.2697 29.6435L24.6694 29.5483L24.5854 29.2002Z" fill="white"/>
<path d="M26.9642 28.6495L24.9485 29.1211L25.0326 29.4697L27.0483 28.9981L26.9642 28.6495Z" fill="white"/>
<path d="M24.5984 27.7211L24.7021 28.1406L24.0946 28.281L24.1788 28.6296L24.7862 28.4892L24.8745 28.8474L25.1619 28.7786L25.0736 28.4205L26.3593 28.1201C26.4342 28.1101 26.5104 28.0768 26.5824 28.0341C26.63 28.0133 26.6651 27.9639 26.6908 27.9188C26.7122 27.8641 26.72 27.804 26.7183 27.7481C26.7178 27.669 26.694 27.5886 26.684 27.5137L26.6141 27.2495L26.3172 27.3224L26.3551 27.4872C26.3551 27.4872 26.3734 27.5812 26.3805 27.6234C26.393 27.652 26.3823 27.6794 26.3715 27.7067C26.3608 27.7341 26.3459 27.7519 26.3269 27.7602C26.2983 27.7727 26.2698 27.7851 26.2412 27.7976L24.9841 28.0855L24.8804 27.6661L24.593 27.7348L24.5984 27.7211Z" fill="white"/>
<path d="M23.9444 26.6125L23.1667 26.1811L23.2788 26.6196L24.0102 26.8671L23.9402 26.603L23.9444 26.6125Z" fill="white"/>
<path d="M25.4385 25.2577L25.5227 25.6063C25.644 25.5987 25.7671 25.647 25.87 25.7268C25.9674 25.8203 26.0309 25.9399 26.0618 26.0625C26.0938 26.1618 26.0973 26.2737 26.0829 26.3706C26.0644 26.458 26.0322 26.5401 25.9863 26.6168C25.9363 26.6839 25.8821 26.7416 25.8101 26.7843C25.7339 26.8176 25.6482 26.855 25.5679 26.8787L25.1756 25.3044C25.0394 25.3299 24.9209 25.3702 24.7972 25.4242C24.6734 25.4782 24.5526 25.565 24.4591 25.6624C24.3656 25.7599 24.2887 25.8954 24.2541 26.0239C24.2088 26.1797 24.2181 26.357 24.2656 26.5176C24.3005 26.6497 24.3587 26.783 24.4413 26.8943C24.5239 27.0056 24.6172 27.0896 24.739 27.1611C24.8609 27.2326 24.9894 27.2672 25.1232 27.2881C25.2665 27.3049 25.4206 27.2943 25.5663 27.2647C25.708 27.2256 25.8412 27.1674 25.9758 27.0861C26.0954 27.0225 26.1888 26.9251 26.2687 26.8222C26.3443 26.7099 26.3926 26.5868 26.404 26.4572C26.4262 26.3001 26.4156 26.1461 26.3765 26.0045C26.3273 25.7879 26.221 25.5963 26.0564 25.4528C25.8864 25.3229 25.6759 25.2561 25.4659 25.2684L25.4385 25.2577ZM25.2627 26.9325C25.1877 26.9426 25.1086 26.9431 25.0254 26.9341C24.9516 26.9209 24.8832 26.8941 24.8107 26.8578C24.7477 26.8173 24.69 26.7631 24.6419 26.7047C24.5896 26.6369 24.5564 26.5607 24.538 26.4667C24.5143 26.3864 24.5096 26.2978 24.5186 26.2145C24.5318 26.1407 24.5545 26.0628 24.595 25.9998C24.6355 25.9368 24.6897 25.8792 24.748 25.831C24.8064 25.7829 24.8825 25.7497 24.9628 25.726L25.2669 26.9421L25.2627 26.9325Z" fill="white"/>
<path d="M25.311 23.2506C25.2057 23.2172 25.0897 23.2112 24.9904 23.2432C24.9059 23.2574 24.8244 23.3043 24.766 23.3524C24.7118 23.4101 24.6713 23.4731 24.6445 23.5415C24.6218 23.6194 24.5991 23.6973 24.5943 23.7901C24.5895 23.8829 24.5941 23.9715 24.5893 24.0643C24.594 24.1529 24.5945 24.232 24.5992 24.3207C24.5997 24.3998 24.6002 24.4789 24.5871 24.5526C24.5793 24.6127 24.562 24.6769 24.531 24.7358C24.5202 24.7631 24.5053 24.781 24.4768 24.7934C24.4482 24.8059 24.4292 24.8142 24.4006 24.8267C24.3625 24.8433 24.3025 24.8355 24.2614 24.8194C24.2204 24.8033 24.1847 24.7735 24.1544 24.7301C24.1242 24.6866 24.0939 24.6432 24.0731 24.5956C24.0523 24.548 24.0315 24.5004 24.0161 24.4391C23.9912 24.382 23.9895 24.326 23.9877 24.2701C23.986 24.2142 23.9938 24.1541 24.0057 24.1036C24.0177 24.053 24.0433 24.0079 24.0826 23.968C24.1219 23.9282 24.1749 23.8938 24.2361 23.8784L24.152 23.5297C24.0485 23.5522 23.9521 23.617 23.8652 23.6776C23.8015 23.7394 23.7461 23.8202 23.718 23.9118C23.69 24.0034 23.6756 24.1003 23.6844 24.1985C23.6879 24.3103 23.705 24.4275 23.7412 24.5364C23.7596 24.6304 23.8011 24.7256 23.848 24.8071C23.8854 24.8928 23.9419 24.9702 24.0174 25.0393C24.0792 25.103 24.1558 25.1488 24.2379 25.181C24.3295 25.2091 24.4223 25.2139 24.5163 25.1956C24.6335 25.1784 24.7299 25.1137 24.7948 25.0287C24.846 24.9383 24.8836 24.8426 24.9033 24.732C24.9189 24.6118 24.9154 24.5 24.9078 24.3786C24.9002 24.2573 24.8926 24.1359 24.9028 24.0295C24.9076 23.9367 24.922 23.8397 24.95 23.7482C24.9661 23.7071 24.9864 23.6756 25.0203 23.6495C25.0543 23.6234 25.0828 23.6109 25.1251 23.6038C25.1727 23.583 25.2327 23.5908 25.2916 23.6218C25.3368 23.6474 25.3861 23.6825 25.4164 23.726C25.4509 23.779 25.4812 23.8224 25.4966 23.8837C25.5215 23.9408 25.5423 23.9884 25.5482 24.0539C25.5677 24.1247 25.5736 24.1901 25.5837 24.2651C25.5895 24.3305 25.5859 24.4001 25.5644 24.4548C25.5471 24.519 25.512 24.5684 25.4727 24.6082C25.4239 24.6521 25.3614 24.6908 25.3001 24.7062L25.3842 25.0548C25.4973 25.0281 25.5979 24.9729 25.6806 24.9028C25.7538 24.8369 25.8092 24.756 25.8468 24.6603C25.8844 24.5645 25.8946 24.4581 25.8953 24.3558C25.8918 24.2439 25.8746 24.1267 25.848 24.0137C25.8213 23.9007 25.7893 23.8013 25.7341 23.7007C25.6925 23.6055 25.6278 23.5091 25.5618 23.4359C25.4959 23.3626 25.4055 23.3114 25.3234 23.2792L25.311 23.2506Z" fill="white"/>
<path d="M30.3859 58.8015L26.8066 59.6381L27.1148 60.8637L30.694 60.0272L30.3859 58.8015Z" fill="#64B5F6"/>
<path d="M25.4099 60.0209L25.6831 61.1144L26.9049 61.6807L26.6738 60.7614L26.0102 60.4616L26.4581 59.9035L26.2661 59.1259L26.0822 59.1721L25.414 60.0304L25.4099 60.0209Z" fill="#64B5F6"/>
<path d="M25.3194 59.3464L26.0916 59.1681L26.2364 58.9802L26.2755 59.1218L30.2361 58.1982L29.9279 56.9726L25.0071 58.1112L25.3152 59.3369L25.3194 59.3464Z" fill="#64B5F6"/>
<path d="M26.0915 59.1678L26.2751 59.1216L26.236 58.9803L26.0915 59.1678Z" fill="#64B5F6"/>
<path d="M27.7903 53.009L28.0747 54.1543C28.3697 54.207 28.5747 54.4689 28.6434 54.7562C28.7696 55.2792 28.5224 55.6478 28.0363 55.7806L27.3513 53.0419C26.1251 53.271 25.3248 54.1643 25.6597 55.5029C25.937 56.606 26.9458 57.3332 28.0476 57.0791C29.2435 56.8066 29.7375 55.8089 29.4335 54.5928C29.2302 53.7634 28.6676 53.0455 27.7808 53.0132L27.7903 53.009ZM27.3908 55.9376C26.9381 55.9651 26.5725 55.7506 26.4605 55.3121C26.3609 54.9022 26.6177 54.5295 27.0097 54.4151L27.3908 55.9376Z" fill="#64B5F6"/>
<path d="M25.6001 51.834C25.8229 52.7342 26.6036 53.0169 27.3949 52.8303C28.1862 52.6436 28.7619 52.041 28.535 51.1313C28.4396 50.7309 28.2067 50.3791 27.8529 50.2955L28.2301 50.1989L28.111 49.7182L24.2307 50.6181L24.3498 51.0989L25.8003 50.7606C25.5336 51.0583 25.5325 51.5235 25.6054 51.8204L25.6001 51.834ZM26.8272 50.5165C27.3502 50.3902 27.9526 50.524 28.1096 51.1696C28.2679 51.7919 27.8327 52.1972 27.296 52.318C26.7499 52.443 26.1545 52.3515 25.9934 51.6964C25.8322 51.0414 26.2757 50.6551 26.8314 50.526L26.8272 50.5165Z" fill="#64B5F6"/>
<path d="M26.482 46.9721L26.6011 47.4528C26.9871 47.4544 27.2397 47.6955 27.3404 48.0822C27.507 48.7236 27.1426 49.1093 26.644 49.2135L26.0935 47.0169C25.4028 47.1484 24.5606 47.6859 24.8184 48.7181C25.0229 49.5243 25.7773 49.9545 26.6203 49.7566C27.4741 49.5314 27.9749 48.9388 27.7492 48.0059C27.588 47.3508 27.1339 46.9596 26.482 46.9721ZM26.2395 49.2994C25.8034 49.365 25.3587 49.1511 25.2408 48.6472C25.1217 48.1664 25.3903 47.7432 25.8247 47.6216L26.2395 49.2994Z" fill="#64B5F6"/>
<path d="M21.4209 43.7631L22.3679 47.5435L27.2887 46.4049L26.9539 45.0662L25.0608 45.507L24.5339 43.3907L23.5451 43.6182L24.072 45.7345L23.0641 45.9703L22.4519 43.5286L21.425 43.7727L21.4209 43.7631Z" fill="#64B5F6"/>
<path d="M22.0041 40.6068C22.013 40.7049 22.0218 40.8031 22.0443 40.9066C22.1747 41.4391 22.5235 41.7969 23.0177 41.8646L22.3954 42.0228L22.6869 43.2103L26.2662 42.3738L25.958 41.1482L24.1874 41.5581C23.7353 41.6648 23.2632 41.4401 23.1133 40.8368C23.0795 40.6815 23.0606 40.5084 23.0596 40.3502L21.9905 40.6014L22.0041 40.6068Z" fill="#64B5F6"/>
<path d="M25.0124 37.3449L24.7001 36.1098C24.4519 36.3201 24.1223 36.3959 23.8254 36.4688L22.2618 36.8338C21.254 37.0696 21.2722 37.9684 21.5004 38.8549C21.6082 39.2838 21.7869 39.6932 22.0507 39.9861C22.3145 40.279 22.6784 40.4376 23.1579 40.3417L22.8735 39.1964C22.5612 39.208 22.3567 39.0252 22.2768 38.6861C22.211 38.4314 22.2345 38.0698 22.5028 38.0094C22.7194 37.9602 22.8169 38.0537 22.9178 38.259C23.2941 39.0695 23.5403 40.4128 24.7035 40.1433C25.443 39.9679 25.6435 39.3364 25.4669 38.62C25.3507 38.172 25.1132 37.7316 24.7161 37.4969C24.8249 37.4607 24.935 37.4013 25.0398 37.3556L25.0124 37.3449ZM24.3245 38.9372C24.0467 39.0018 23.8761 38.7928 23.7449 38.5441C23.6095 38.2858 23.4998 37.9823 23.3679 37.8359C24.0949 37.632 24.4654 37.7536 24.607 38.3379C24.6716 38.6157 24.616 38.878 24.3287 38.9467L24.3245 38.9372Z" fill="#64B5F6"/>
<path d="M22.271 33.7126L23.9994 33.3098L23.6912 32.0841L21.3976 32.6203C20.8842 32.7424 20.0405 33.0426 20.3474 34.2914C20.4636 34.7394 20.8171 35.1858 21.2286 35.3236L21.2369 35.3427L20.7425 35.4564L21.0436 36.6398L24.6228 35.8032L24.3146 34.5776L22.3602 35.0338C21.9693 35.1251 21.5471 35.0146 21.4363 34.5529C21.2668 33.8788 21.7766 33.8264 22.2669 33.7031L22.271 33.7126Z" fill="#64B5F6"/>
<path d="M21.2646 28.3146L21.5657 29.498C21.9583 29.4627 22.2472 29.6313 22.3509 30.0508C22.4866 30.5696 22.0604 30.8916 21.5946 30.9929C21.1002 31.1066 20.5083 31.1269 20.3484 30.4486C20.2713 30.1422 20.4096 29.8098 20.716 29.7328L20.4245 28.5452C19.5016 28.846 19.2432 29.7861 19.469 30.719C19.7688 31.9256 20.7724 32.4851 21.9069 32.228C22.9993 31.978 23.5314 30.9637 23.2457 29.8416C22.995 28.8516 22.2569 28.199 21.2687 28.3242L21.2646 28.3146Z" fill="#64B5F6"/>
<path d="M20.5967 24.2651L20.8811 25.4104C21.1761 25.4631 21.3769 25.7155 21.4498 26.0123C21.576 26.5353 21.3288 26.9039 20.8427 27.0367L20.1577 24.298C18.9315 24.5271 18.1312 25.4204 18.4661 26.759C18.7434 27.8621 19.7522 28.5893 20.854 28.3352C22.0594 28.0585 22.5439 27.065 22.2399 25.8489C22.0366 25.0195 21.474 24.3017 20.5872 24.2693L20.5967 24.2651ZM20.1972 27.1937C19.7445 27.2212 19.3789 27.0067 19.2669 26.5683C19.1673 26.1583 19.424 25.7856 19.8161 25.6712L20.1972 27.1937Z" fill="#64B5F6"/>
<path d="M18.3906 23.2102L23.1984 22.0982C23.7309 21.9678 24.1856 21.6334 24.4621 21.15C24.7385 20.6667 24.8152 20.0892 24.686 19.5335L23.4267 14.518C23.288 13.9664 22.9411 13.4831 22.4644 13.1698C21.9918 12.866 21.425 12.762 20.8883 12.8828L16.0805 13.9948C15.548 14.1252 15.0933 14.4596 14.8168 14.943C14.5404 15.4263 14.4637 16.0038 14.5929 16.5595L15.8522 21.575C15.9909 22.1266 16.3378 22.6099 16.8104 22.9137C17.283 23.2175 17.8498 23.3215 18.3864 23.2007L18.3906 23.2102ZM18.1683 15.3506C18.2604 14.8343 18.6604 14.4784 19.0511 14.5686C19.4419 14.6588 19.7043 15.1563 19.6122 15.6725C19.5243 16.1983 19.1201 16.5447 18.7294 16.4545C18.3387 16.3643 18.0762 15.8668 18.1683 15.3506ZM17.1766 18.6622C17.7129 17.6575 18.3324 17.2851 19.2018 16.9397C20.067 16.5848 20.412 16.5703 21.3383 15.758C21.5919 15.534 21.5578 15.7415 21.419 15.9948C20.8827 16.9996 20.2632 17.3719 19.3938 17.7173C18.5286 18.0722 18.1836 18.0868 17.2573 18.899C17.0037 19.123 17.0378 18.9155 17.1766 18.6622ZM17.8433 21.9302C18.1719 21.0728 18.4319 20.3699 18.758 19.5589C19.1605 18.5332 19.9452 17.7601 20.9811 18.6794C21.9457 19.5393 23.0036 20.4831 23.3109 20.7457C23.3507 20.785 23.3483 20.8313 23.2816 20.8604C22.9318 20.9678 22.1232 21.2186 21.7541 20.8923C21.2204 20.4225 20.6207 19.8795 20.1363 19.4448C19.7137 19.0738 19.264 19.1341 19.0613 19.6306C18.8508 20.1871 18.502 21.0761 18.372 21.4275C18.2903 21.6558 18.1729 21.8544 18.0104 22.0273C17.8681 22.1688 17.7628 22.1353 17.8433 21.9302Z" fill="#64B5F6"/>
<path d="M18.7295 16.4545C19.1298 16.5405 19.5244 16.1983 19.6124 15.6725C19.7045 15.1563 19.4515 14.6546 19.0513 14.5686C18.6469 14.4731 18.2564 14.8248 18.1684 15.3506C18.0764 15.8668 18.3293 16.3685 18.7295 16.4545Z" fill="white"/>
<path d="M18.0108 22.0275C18.1733 21.8545 18.2907 21.656 18.3724 21.4276C18.5119 21.0721 18.8512 20.1873 19.0617 19.6307C19.2507 19.1289 19.7141 19.074 20.1367 19.4449C20.6211 19.8796 21.2208 20.4227 21.7545 20.8925C22.1236 21.2188 22.9322 20.9679 23.282 20.8606C23.3391 20.8357 23.3511 20.7851 23.3113 20.7458C23.0135 20.479 21.9461 19.5394 20.9815 18.6796C19.9456 17.7602 19.1609 18.5334 18.7584 19.5591C18.4418 20.3659 18.1723 21.0729 17.8437 21.9304C17.7632 22.1355 17.8685 22.1689 18.0108 22.0275Z" fill="white"/>
<path d="M17.253 18.8897C18.1793 18.0774 18.5243 18.0629 19.3895 17.708C20.2452 17.3572 20.8689 16.9944 21.4147 15.9855C21.5535 15.7322 21.5918 15.5342 21.334 15.7487C20.4077 16.5609 20.0627 16.5755 19.1975 16.9304C18.3418 17.2811 17.7181 17.644 17.1723 18.6529C17.043 18.902 16.9952 19.1042 17.253 18.8897Z" fill="white"/>
<path d="M38.1746 10.3153L37.6189 10.4445C37.6189 10.4445 37.5618 10.4694 37.5415 10.5009C37.5213 10.5324 37.5242 10.5651 37.5271 10.5979L37.6658 11.1494C37.6658 11.1494 37.6783 11.1779 37.6866 11.197C37.6949 11.216 37.6991 11.2256 37.7264 11.2363C37.7306 11.2458 37.7579 11.2565 37.7674 11.2524C37.777 11.2482 37.8043 11.259 37.8138 11.2548L38.3695 11.1257C38.3695 11.1257 38.3981 11.1132 38.4171 11.1049C38.4362 11.0966 38.4415 11.0829 38.4469 11.0692C38.4564 11.0651 38.4576 11.0419 38.4588 11.0187C38.4547 11.0091 38.4559 10.986 38.4571 10.9628L38.3184 10.4112C38.3184 10.4112 38.306 10.3827 38.2977 10.3636C38.2893 10.3446 38.2852 10.3351 38.2578 10.3243C38.2537 10.3148 38.2263 10.3041 38.2127 10.2987C38.2031 10.3029 38.1758 10.2921 38.1663 10.2963L38.1746 10.3153Z" fill="white"/>
<path d="M38.5024 11.6115L37.9467 11.7406L36.9484 11.9723C36.9484 11.9723 36.9007 11.9931 36.8817 12.0014C36.8627 12.0097 36.8519 12.037 36.8412 12.0644L36.4644 14.915L34.6377 12.3913L34.0216 12.8755L34.0863 12.9719C34.5996 13.6546 35.1087 14.3279 35.6137 14.9916C36.0141 15.5195 36.31 15.9118 36.3967 16.0326L36.9851 15.9005C37.0115 15.7531 37.0886 15.2547 37.1946 14.5624C37.31 13.866 37.4052 13.201 37.5087 12.5551L37.9936 12.4456L38.7207 15.3585C38.7207 15.3585 38.7332 15.3871 38.7415 15.4061C38.7498 15.4251 38.754 15.4347 38.7813 15.4454C38.7855 15.4549 38.8128 15.4656 38.8224 15.4615C38.8319 15.4573 38.8592 15.4681 38.8688 15.4639L39.4244 15.3348C39.4244 15.3348 39.453 15.3223 39.4721 15.314C39.4911 15.3057 39.4965 15.292 39.5018 15.2783C39.5113 15.2742 39.5126 15.251 39.5138 15.2278C39.5096 15.2183 39.5108 15.1951 39.512 15.1719L38.6504 11.7169C38.6504 11.7169 38.6379 11.6884 38.6296 11.6693C38.6213 11.6503 38.6171 11.6407 38.5898 11.63C38.5856 11.6205 38.5583 11.6098 38.5446 11.6044C38.5351 11.6085 38.5077 11.5978 38.4982 11.602L38.5024 11.6115Z" fill="white"/>
<path d="M33.6754 13.0945C33.481 12.9866 33.261 12.924 33.0427 12.9172C32.7875 12.9039 32.5299 12.937 32.2848 12.9986C32.1105 13.0407 31.9743 13.0661 31.8654 13.1023L31.6666 13.1664L31.581 13.2037L31.6701 13.9016L31.8022 13.8666C31.9248 13.8358 32.0146 13.8079 32.0854 13.7883C32.1521 13.7593 32.2365 13.7451 32.3305 13.7267C32.4626 13.6917 32.603 13.6758 32.7434 13.6599C32.8511 13.6469 32.9575 13.6571 33.0682 13.6768C33.1883 13.6924 33.3155 13.7502 33.4089 13.8342C33.4843 13.9033 33.5396 14.0038 33.5811 14.099C33.3443 14.1797 33.1021 14.2741 32.8736 14.3738C32.6737 14.461 32.4915 14.5632 32.3082 14.6885C32.1005 14.8358 31.9367 15.032 31.8277 15.2496C31.7281 15.463 31.7011 15.7128 31.7723 15.9538C31.8114 16.0954 31.8737 16.2382 31.9605 16.359C31.9414 16.3674 31.9129 16.3798 31.8855 16.3691C31.7874 16.3779 31.6851 16.3772 31.5881 16.3629C31.5007 16.3443 31.4091 16.3163 31.3378 16.2568C31.2801 16.2026 31.2374 16.1306 31.2178 16.0598L31.1603 15.8242C31.1254 15.6921 31.0833 15.5177 31.0341 15.3012C30.985 15.0846 30.9192 14.83 30.8463 14.5331C30.7622 14.1844 30.5899 13.9196 30.3432 13.7439C30.2172 13.6629 30.0804 13.6092 29.9329 13.5829C29.7854 13.5566 29.6409 13.563 29.4993 13.6021C29.3059 13.6525 29.1292 13.741 28.9703 13.8443C28.7679 13.978 28.5738 14.1307 28.3976 14.2982L28.3176 13.9591L27.5644 14.1291L28.496 17.8482L29.226 17.677C29.226 17.677 28.8687 16.2348 28.8142 16.0319C28.7596 15.8291 28.7022 15.5934 28.6364 15.3388C28.5943 15.1645 28.5676 15.0514 28.5481 14.9806C28.6957 14.8255 28.8517 14.6895 29.0255 14.5683C29.1517 14.4679 29.3094 14.3877 29.4605 14.3444C29.6676 14.2994 29.8109 14.3162 29.8864 14.3853C29.9714 14.4502 30.0652 14.6133 30.1405 14.8637C30.1672 14.9768 30.2188 15.147 30.2763 15.3826C30.3337 15.6182 30.38 15.802 30.4108 15.9246L30.4908 16.2637C30.534 16.4148 30.6154 16.5493 30.7075 16.6565C30.8311 16.7839 30.9886 16.8852 31.1486 16.94C31.3413 16.992 31.5352 17.0207 31.7356 17.0126C31.9593 17.0056 32.1842 16.9755 32.4007 16.9263L33.1634 16.7522L33.1825 16.7438L34.7829 16.3855C34.8115 16.373 34.8305 16.3647 34.8454 16.3469C34.8603 16.329 34.871 16.3017 34.8681 16.269C34.8639 16.2594 34.8693 16.2458 34.861 16.2267L34.8443 16.1886C34.8319 16.1601 34.8218 16.0851 34.7294 15.7174C34.6369 15.3497 34.522 14.8785 34.3708 14.2984C34.2867 13.9498 34.184 13.6886 34.0587 13.5053C33.9512 13.3368 33.8002 13.1987 33.629 13.092L33.6754 13.0945ZM33.8929 15.2551C33.9474 15.458 33.9854 15.6228 34.0162 15.7453C34.0328 15.7834 34.0399 15.8256 34.0428 15.8584C34.0143 15.8708 33.972 15.8779 33.9393 15.8809C33.878 15.8963 33.8167 15.9117 33.7745 15.9188C33.6424 15.9538 33.502 15.9697 33.3616 15.9856C33.2444 16.0028 33.1189 16.0009 33.003 15.9948C32.887 15.9887 32.7722 15.9595 32.664 15.8934C32.6188 15.8677 32.5885 15.8243 32.5582 15.7808C32.5374 15.7332 32.5167 15.6856 32.4959 15.638C32.4751 15.5904 32.4775 15.544 32.4895 15.4935C32.5014 15.4429 32.5175 15.4019 32.5473 15.3662C32.6176 15.2676 32.7057 15.1838 32.8063 15.1286C32.9842 15.0169 33.1705 14.9243 33.3788 14.8561C33.5311 14.7896 33.6727 14.7505 33.7625 14.7226C33.785 14.8261 33.8088 14.9064 33.8325 14.9867L33.8971 15.2646L33.8929 15.2551Z" fill="white"/>
<path d="M45.5742 10.4407C45.381 10.3097 45.1664 10.2333 44.9356 10.198C44.6953 10.1669 44.4621 10.1779 44.2265 10.2354C44.0005 10.2888 43.7719 10.3885 43.5791 10.518C43.3904 10.657 43.2374 10.8258 43.1105 11.0285C42.9782 11.2449 42.9007 11.4827 42.8642 11.7367C42.8413 11.996 42.8512 12.2524 42.917 12.507C42.9816 12.7849 43.1033 13.0378 43.2589 13.2646C43.4104 13.4818 43.6053 13.6688 43.8354 13.8064C44.0298 13.9142 44.2444 13.9906 44.4615 14.0205C44.6881 14.0463 44.9118 14.0394 45.1379 13.986C45.364 13.9327 45.5776 13.8508 45.7663 13.7118C45.955 13.5728 46.127 13.3957 46.2402 13.1876C46.363 12.9754 46.4447 12.7471 46.4758 12.5068C46.5177 12.2391 46.4995 11.9637 46.4254 11.69C46.3692 11.4312 46.2516 11.1878 46.1055 10.9569C45.954 10.7397 45.7633 10.5622 45.5427 10.4205L45.5742 10.4407ZM45.743 12.4639C45.7292 12.6399 45.6648 12.804 45.5826 12.9533C45.526 13.0573 45.4379 13.1411 45.3456 13.2154C45.2397 13.2843 45.1254 13.3341 45.0028 13.3649C44.8898 13.3916 44.778 13.3951 44.662 13.389C44.5555 13.3788 44.4503 13.3454 44.3504 13.2983C44.1875 13.2107 44.0407 13.0821 43.9373 12.9232C43.8257 12.7452 43.7426 12.5548 43.6922 12.3614C43.646 12.1776 43.6283 11.9813 43.6517 11.8011C43.6655 11.625 43.7204 11.4651 43.8026 11.3158C43.8592 11.2118 43.9432 11.1185 44.0354 11.0442C44.1414 10.9753 44.2556 10.9255 44.3782 10.8946C44.4912 10.868 44.6126 10.8604 44.7327 10.8759C44.8392 10.8861 44.9486 10.9291 45.0526 10.9857C45.2197 11.0828 45.357 11.2156 45.4603 11.3745C45.5678 11.5429 45.6509 11.7333 45.7013 11.9267C45.7475 12.1105 45.761 12.2973 45.7418 12.4871L45.743 12.4639Z" fill="white"/>
<path d="M40.5981 14.5959C40.8716 14.7033 41.1571 14.76 41.4462 14.7472C41.7436 14.7534 42.0339 14.7174 42.3213 14.6487L42.3689 14.6279C42.3973 14.7969 42.3888 14.9593 42.3435 15.1151C42.2886 15.275 42.1683 15.4409 41.9415 15.5965C41.7826 15.6998 41.6058 15.7883 41.4303 15.8536C41.3732 15.8785 41.3065 15.9076 41.2316 15.9176C41.5205 16.0862 41.816 16.218 42.1371 16.3045C42.3139 16.2161 42.4782 16.099 42.6246 15.9671C42.8348 15.7734 42.9968 15.5213 43.0768 15.2371C43.1567 14.9528 43.138 14.5983 43.0385 14.1884C42.9893 13.9718 42.9277 13.7267 42.8482 13.4667C42.7783 13.2025 42.722 12.9437 42.6562 12.6891C42.5638 12.3214 42.4684 11.921 42.3688 11.511C42.3226 11.3272 42.2793 11.1761 42.2527 11.063L42.1952 10.8274C42.1952 10.8274 42.1702 10.7703 42.1387 10.7501C42.1072 10.7298 42.0799 10.7191 42.0472 10.722L41.6563 10.8132C41.3552 10.8766 41.0571 10.9727 40.7674 11.0878C40.5388 11.1875 40.3133 11.32 40.1234 11.4822C39.8656 11.6967 39.6655 11.9654 39.5462 12.2894C39.4228 12.604 39.4088 12.9614 39.4983 13.2964C39.5575 13.5879 39.6875 13.8599 39.88 14.0932C40.0684 14.3171 40.3151 14.4928 40.5886 14.6001L40.5981 14.5959ZM40.2937 12.4959C40.3606 12.2854 40.4958 12.1017 40.6654 11.971C40.8011 11.8665 40.9452 11.781 41.0975 11.7145C41.2593 11.6438 41.4295 11.5923 41.5943 11.5543C41.6613 11.7858 41.7146 12.0119 41.7733 12.2243C41.8391 12.4789 41.8883 12.6955 41.9357 12.8561C42.0169 13.1721 42.0815 13.4499 42.139 13.6855C42.1698 13.8081 42.1977 13.8979 42.2036 13.9634L42.1845 13.9717C41.9965 14.0084 41.8044 14.0355 41.6134 14.0395C41.4457 14.0447 41.2791 14.0267 41.1138 13.9855C40.9158 13.9473 40.735 13.8448 40.5799 13.6971C40.4248 13.5495 40.3144 13.3483 40.2694 13.1413C40.2107 12.9289 40.2133 12.7011 40.2801 12.4906L40.2937 12.4959Z" fill="white"/>
<path d="M44.9892 2.84158C44.4988 2.52289 43.9088 2.41765 43.3627 2.54265L24.3848 6.94807L39.0118 65.374L57.9897 60.9686C58.5453 60.8395 59.015 60.4872 59.2968 59.9902C59.5881 59.489 59.666 58.8883 59.519 58.3177L45.9819 4.2332C45.8349 3.66263 45.4797 3.16026 44.9892 2.84158ZM27.5628 14.1526L28.3119 13.973L28.4014 14.308C28.5776 14.1404 28.7717 13.9877 28.974 13.8541C29.1383 13.7371 29.3192 13.6581 29.503 13.6119C29.6447 13.5728 29.7892 13.5664 29.9367 13.5927C30.0842 13.619 30.2209 13.6726 30.347 13.7537C30.599 13.9157 30.7659 14.1942 30.8501 14.5429C30.9229 14.8397 30.9887 15.0944 31.0379 15.311C31.0871 15.5275 31.1291 15.7018 31.1641 15.8339L31.2216 16.0695C31.2316 16.1445 31.2839 16.2123 31.332 16.2707C31.4034 16.3302 31.4896 16.372 31.5824 16.3768C31.6793 16.3912 31.7858 16.4014 31.8798 16.383C31.9083 16.3706 31.9274 16.3622 31.9547 16.373C31.868 16.2521 31.7961 16.1135 31.7665 15.9677C31.7091 15.7321 31.7224 15.477 31.8219 15.2635C31.9363 15.0322 32.1001 14.8361 32.3025 14.7024C32.4763 14.5813 32.6679 14.475 32.8678 14.3877C33.0963 14.288 33.3344 14.1841 33.5753 14.113C33.5338 14.0178 33.4827 13.9267 33.4031 13.8481C33.3098 13.7642 33.1921 13.7022 33.0624 13.6908C32.9518 13.671 32.8495 13.6703 32.7376 13.6738C32.5973 13.6897 32.461 13.7152 32.3248 13.7406C32.2213 13.7631 32.1409 13.7869 32.0797 13.8023C32.013 13.8313 31.9095 13.8539 31.7964 13.8805L31.6644 13.9155L31.571 13.2082L31.6567 13.1708L31.8596 13.1162C31.959 13.0842 32.0911 13.0492 32.2791 13.0125C32.5242 12.9509 32.7859 12.9273 33.0369 12.9311C33.2552 12.9379 33.4753 13.0006 33.6697 13.1084C33.8504 13.2109 33.9918 13.3532 34.113 13.527C34.2384 13.7103 34.3315 13.9757 34.4252 14.3202C34.5763 14.9003 34.6913 15.3715 34.7837 15.7392C34.8761 16.1068 34.8862 16.1818 34.8987 16.2104L34.9111 16.2389L34.9153 16.2484C34.9194 16.258 34.9277 16.277 34.9224 16.2907C34.9212 16.3139 34.9104 16.3412 34.8997 16.3686C34.8848 16.3864 34.8604 16.4084 34.8372 16.4072L33.241 16.7751L33.2219 16.7834L32.455 16.948C32.2385 16.9972 32.0136 17.0273 31.7899 17.0343C31.5895 17.0424 31.3956 17.0137 31.2029 16.9618C31.0388 16.8974 30.8854 16.8056 30.7618 16.6782C30.656 16.5657 30.5883 16.4365 30.5492 16.2949L30.4651 15.9463C30.4343 15.8237 30.388 15.6399 30.3306 15.4043C30.2731 15.1687 30.231 14.9944 30.1948 14.8855C30.129 14.6308 30.0352 14.4678 29.9407 14.407C29.8462 14.3462 29.7219 14.3211 29.5148 14.3661C29.3542 14.4136 29.2102 14.4991 29.0798 14.59C28.906 14.7112 28.75 14.8472 28.6024 15.0024C28.6219 15.0732 28.6486 15.1862 28.6907 15.3605C28.7565 15.6152 28.8098 15.8412 28.8685 16.0537C28.923 16.2565 29.272 17.6797 29.2803 17.6987L28.5313 17.8783L27.5997 14.1591L27.5628 14.1526ZM38.6449 11.7307L39.516 15.1815C39.516 15.1815 39.5285 15.21 39.5178 15.2374C39.5219 15.2469 39.5112 15.2742 39.5058 15.2879C39.4963 15.2921 39.4856 15.3194 39.4761 15.3236C39.457 15.3319 39.4475 15.336 39.4285 15.3444L38.8728 15.4735C38.8728 15.4735 38.8442 15.486 38.8264 15.4711C38.8169 15.4752 38.799 15.4604 38.7853 15.455C38.7812 15.4455 38.7538 15.4347 38.7455 15.4157C38.7372 15.3967 38.7331 15.3871 38.7248 15.3681L37.9976 12.4551L37.5127 12.5647C37.4188 13.2065 37.3099 13.866 37.1986 14.572C37.0968 15.2738 37.0155 15.7626 36.9892 15.9101L36.4007 16.0422C36.314 15.9214 36.0223 15.5387 35.6177 15.0012C35.1128 14.3375 34.6036 13.6642 34.0903 12.9815L34.0256 12.8851L34.6417 12.4009L36.4684 14.9246L36.8452 12.074C36.8452 12.074 36.8708 12.0288 36.8857 12.011C36.9048 12.0027 36.9292 11.9807 36.9524 11.9819L37.9507 11.7502L38.5064 11.6211C38.5064 11.6211 38.5391 11.6181 38.5528 11.6235C38.5623 11.6194 38.5801 11.6342 38.598 11.6491C38.6021 11.6587 38.6199 11.6735 38.6378 11.6884C38.6461 11.7075 38.6502 11.717 38.6585 11.736L38.6449 11.7307ZM38.4671 11.0375C38.4671 11.0375 38.4605 11.0744 38.4551 11.0881C38.4456 11.0922 38.4349 11.1196 38.4254 11.1237C38.4063 11.132 38.3968 11.1362 38.3777 11.1445L37.8221 11.2737C37.8221 11.2737 37.7935 11.2861 37.7757 11.2712C37.7578 11.2564 37.7483 11.2605 37.7346 11.2551C37.721 11.2498 37.7031 11.2349 37.6948 11.2158C37.6865 11.1968 37.6824 11.1873 37.674 11.1682L37.5354 10.6167C37.5354 10.6167 37.5295 10.5513 37.5497 10.5198C37.57 10.4883 37.5944 10.4663 37.6271 10.4633L38.1828 10.3342C38.1828 10.3342 38.2114 10.3217 38.2292 10.3366C38.247 10.3515 38.2566 10.3473 38.2744 10.3622C38.2922 10.3771 38.2964 10.3866 38.3142 10.4015C38.3225 10.4206 38.3267 10.4301 38.335 10.4491L38.4736 11.0007C38.4736 11.0007 38.4861 11.0292 38.4754 11.0566L38.4671 11.0375ZM42.377 11.5301C42.4765 11.94 42.5719 12.3405 42.6644 12.7081C42.7302 12.9628 42.796 13.2174 42.8564 13.4858C42.9263 13.7499 42.9838 13.9855 43.0466 14.2074C43.1462 14.6174 43.1649 14.9719 43.0849 15.2562C43.005 15.5404 42.8429 15.7925 42.6328 15.9862C42.4863 16.1181 42.3179 16.2256 42.1453 16.3236C41.8337 16.2329 41.5287 16.1053 41.2397 15.9367C41.3064 15.9076 41.3677 15.8922 41.4385 15.8726C41.614 15.8074 41.7907 15.7189 41.9497 15.6156C42.1764 15.4599 42.3063 15.2899 42.3516 15.1341C42.397 14.9783 42.4054 14.816 42.3812 14.6565L42.3336 14.6773C42.0421 14.7365 41.7476 14.763 41.4544 14.7663C41.1706 14.7654 40.8798 14.7223 40.6063 14.615C40.3328 14.5077 40.0902 14.3415 39.8977 14.1082C39.7094 13.8843 39.5752 13.6028 39.5202 13.3208C39.4307 12.9859 39.4488 12.6379 39.5627 12.3275C39.6861 12.013 39.8821 11.7348 40.1399 11.5203C40.3393 11.3539 40.5553 11.2257 40.7838 11.1259C41.0695 11.0013 41.3622 10.9189 41.6728 10.8514L42.0636 10.7601C42.0636 10.7601 42.1237 10.7679 42.1552 10.7882C42.1867 10.8084 42.1992 10.837 42.2117 10.8655L42.2691 11.1011C42.2958 11.2142 42.3349 11.3558 42.3853 11.5492L42.377 11.5301ZM46.4514 11.7243C46.5213 11.9884 46.5395 12.2638 46.4976 12.5315C46.4706 12.7813 46.3889 13.0096 46.2662 13.2219C46.1434 13.4341 45.9809 13.607 45.7922 13.746C45.5993 13.8755 45.3899 13.9669 45.1638 14.0203C44.9472 14.0694 44.7141 14.0805 44.4875 14.0547C44.2704 14.0248 44.0557 13.9485 43.8613 13.8406C43.6312 13.703 43.4363 13.516 43.2848 13.2988C43.1292 13.072 43.0033 12.8096 42.9429 12.5413C42.8771 12.2866 42.8536 12.0249 42.8901 11.7709C42.9171 11.5211 43.0042 11.2791 43.1364 11.0627C43.2538 10.8641 43.4122 10.6817 43.605 10.5522C43.7937 10.4132 44.0127 10.3176 44.2525 10.2696C44.4785 10.2163 44.7212 10.2011 44.9615 10.2322C45.1923 10.2675 45.4069 10.3439 45.6001 10.4749C45.8165 10.6072 46.0115 10.7941 46.1629 11.0114C46.3144 11.2286 46.4224 11.4762 46.4829 11.7445L46.4514 11.7243Z" fill="#64B5F6"/>
</g>
</g>
<defs>
<clipPath id="clip0_1002_16086">
<rect width="81" height="80" fill="white"/>
</clipPath>
<clipPath id="clip1_1002_16086">
<rect width="81" height="80" fill="white"/>
</clipPath>
</defs>
</svg>